<svg version="1.1" xmlns="http://www.w3.org/2000/svg" xmlns:xlink="http://www.w3.org/1999/xlink" viewBox="0 0 400 400" ><path d="M42.969 44.141 L 42.969 61.719 64.844 61.719 L 86.719 61.719 86.719 44.141 L 86.719 26.563 64.844 26.563 L 42.969 26.563 42.969 44.141 M121.875 44.141 L 121.875 61.719 238.672 61.719 L 355.469 61.719 355.469 44.141 L 355.469 26.563 238.672 26.563 L 121.875 26.563 121.875 44.141 M42.969 122.266 L 42.969 139.844 64.844 139.844 L 86.719 139.844 86.719 122.266 L 86.719 104.688 64.844 104.688 L 42.969 104.688 42.969 122.266 M121.875 122.266 L 121.875 139.844 238.672 139.844 L 355.469 139.844 355.469 122.266 L 355.469 104.688 238.672 104.688 L 121.875 104.688 121.875 122.266 M42.969 200.391 L 42.969 217.969 64.844 217.969 L 86.719 217.969 86.719 200.391 L 86.719 182.813 64.844 182.813 L 42.969 182.813 42.969 200.391 M121.875 200.391 L 121.875 217.969 238.672 217.969 L 355.469 217.969 355.469 200.391 L 355.469 182.813 238.672 182.813 L 121.875 182.813 121.875 200.391 M42.969 278.516 L 42.969 296.094 64.844 296.094 L 86.719 296.094 86.719 278.516 L 86.719 260.938 64.844 260.938 L 42.969 260.938 42.969 278.516 M121.875 278.516 L 121.875 296.094 238.672 296.094 L 355.469 296.094 355.469 278.516 L 355.469 260.938 238.672 260.938 L 121.875 260.938 121.875 278.516 M42.969 356.641 L 42.969 374.219 64.844 374.219 L 86.719 374.219 86.719 356.641 L 86.719 339.063 64.844 339.063 L 42.969 339.063 42.969 356.641 M121.875 356.641 L 121.875 374.219 238.672 374.219 L 355.469 374.219 355.469 356.641 L 355.469 339.063 238.672 339.063 L 121.875 339.063 121.875 356.641 " stroke="none" fill-rule="evenodd"></path></svg>