<svg version="1.1"   xmlns="http://www.w3.org/2000/svg" xmlns:xlink="http://www.w3.org/1999/xlink" viewBox="0 0 430 380" ><path d="M0.000 50.000 L 0.000 100.000 50.000 100.000 L 100.000 100.000 100.000 50.000 L 100.000 0.000 50.000 0.000 L 0.000 0.000 0.000 50.000 M150.204 50.000 L 150.204 100.000 200.000 100.000 L 249.796 100.000 249.796 50.000 L 249.796 0.000 200.000 0.000 L 150.204 0.000 150.204 50.000 M300.000 50.000 L 300.000 100.000 350.000 100.000 L 400.000 100.000 400.000 50.000 L 400.000 0.000 350.000 0.000 L 300.000 0.000 300.000 50.000 M0.000 200.000 L 0.000 249.796 50.000 249.796 L 100.000 249.796 100.000 200.000 L 100.000 150.204 50.000 150.204 L 0.000 150.204 0.000 200.000 M150.204 200.000 L 150.204 249.796 200.000 249.796 L 249.796 249.796 249.796 200.000 L 249.796 150.204 200.000 150.204 L 150.204 150.204 150.204 200.000 M300.000 200.000 L 300.000 249.796 350.000 249.796 L 400.000 249.796 400.000 200.000 L 400.000 150.204 350.000 150.204 L 300.000 150.204 300.000 200.000 M0.000 350.000 L 0.000 400.000 50.000 400.000 L 100.000 400.000 100.000 350.000 L 100.000 300.000 50.000 300.000 L 0.000 300.000 0.000 350.000 M150.204 350.000 L 150.204 400.000 200.000 400.000 L 249.796 400.000 249.796 350.000 L 249.796 300.000 200.000 300.000 L 150.204 300.000 150.204 350.000 M300.000 350.000 L 300.000 400.000 350.000 400.000 L 400.000 400.000 400.000 350.000 L 400.000 300.000 350.000 300.000 L 300.000 300.000 300.000 350.000 " stroke="none" fill-rule="evenodd"></path></svg>